# xmcd
#
# Track frame offsets:
# 150
# 17925
# 35810
# 52335
# 71646
# 88248
# 104718
# 123083
# 138290
# 156200
# 170880
# 181826
# 199444
#
# Disc length: 2886 seconds
#
#
# Revision: 0
# Processed by: cddbd v1.5.2PL0 Copyright (c) Steve Scherf et al.
# Submitted via: FreeRIP 2.90 
#
DISCID=ca0b440d
DTITLE=Juliano Cezar - O Melhor de
DYEAR=1900
DGENRE=country
TTITLE0=Nao negue seu amor para mim
TTITLE1=Bem aos olhos da lua
TTITLE2=Faz ela feliz
TTITLE3=Deixe a estrada me levar
TTITLE4=Rumo a goiania
TTITLE5=Rumo a sao paulo
TTITLE6=Eu sou do meio
TTITLE7=Bota cinturao e blue jeans
TTITLE8=Saudade country
TTITLE9=Pedagio
TTITLE10=Peao apaixonado
TTITLE11=Cowboy de coracao
TTITLE12=Em algum lugar
EXTD=
EXTT0=
EXTT1=
EXTT2=
EXTT3=
EXTT4=
EXTT5=
EXTT6=
EXTT7=
EXTT8=
EXTT9=
EXTT10=
EXTT11=
EXTT12=
PLAYORDER=
